<?xml version="1.0" standalone="no"?>
<!DOCTYPE svg PUBLIC "-//W3C//DTD SVG 20010904//EN"
 "http://www.w3.org/TR/2001/REC-SVG-20010904/DTD/svg10.dtd">
<svg version="1.0" xmlns="http://www.w3.org/2000/svg"
 width="2000.000000pt" height="1500.000000pt" viewBox="0 0 2000.000000 1500.000000"
 preserveAspectRatio="xMidYMid meet">

<g transform="translate(0.000000,1500.000000) scale(0.100000,-0.100000)"
fill="#000000" stroke="none">
<path d="M15217 9395 c-94 -18 -205 -63 -284 -114 -193 -126 -309 -306 -358
-553 l-5 -28 -330 0 -330 0 0 113 c0 75 -4 117 -12 125 -14 14 -624 17 -646 4
-9 -7 -12 -80 -10 -333 l3 -324 324 -3 c253 -2 326 1 333 10 4 7 8 64 8 126
l0 112 330 0 330 0 5 -27 c21 -100 38 -160 60 -209 16 -35 22 -61 16 -68 -20
-26 -676 -1133 -685 -1158 l-10 -28 -113 0 -113 0 0 -330 0 -330 330 0 330 0
-2 328 -3 327 -117 3 c-65 1 -118 4 -118 6 0 5 609 1028 616 1035 2 3 23 -13
47 -35 70 -67 120 -102 208 -144 83 -39 182 -70 226 -70 l23 0 0 -785 0 -785
-107 0 c-60 0 -114 -4 -121 -8 -9 -7 -12 -80 -10 -333 l3 -324 325 0 325 0 3
324 c2 253 -1 326 -10 333 -7 4 -61 8 -120 8 l-108 0 0 784 0 783 51 7 c125
17 285 96 390 194 35 32 64 51 69 46 10 -11 600 -1002 607 -1021 4 -10 -18
-13 -111 -13 -112 0 -116 -1 -121 -22 -3 -13 -4 -160 -3 -328 l3 -305 330 0
330 0 0 325 0 325 -117 3 c-100 2 -118 5 -118 18 0 16 -658 1132 -687 1165
-11 14 -9 25 16 80 16 35 37 101 47 147 l17 82 333 0 333 0 3 -122 3 -123 325
0 325 0 3 327 2 328 -22 5 c-13 3 -160 4 -328 3 l-305 -3 -3 -122 -3 -123
-332 0 -332 0 -22 90 c-84 355 -379 598 -743 615 -60 3 -124 -1 -173 -10z
m195 -327 l3 -63 46 -6 c25 -4 60 -14 77 -23 29 -15 30 -18 20 -48 -16 -49
-23 -52 -69 -34 -55 22 -146 23 -185 3 -58 -30 -68 -111 -21 -155 12 -11 58
-38 102 -58 106 -50 158 -87 182 -132 66 -120 13 -256 -120 -307 l-47 -18 0
-63 0 -64 -40 0 -40 0 0 65 c0 65 0 65 -28 65 -36 0 -122 25 -146 43 -16 12
-17 17 -5 55 10 33 16 41 28 36 145 -64 246 -56 297 21 22 34 14 99 -17 131
-13 14 -68 47 -124 73 -153 74 -190 119 -183 222 6 81 40 130 118 166 l60 28
0 56 c0 31 3 59 7 62 3 4 23 7 44 7 l38 0 3 -62z"/>
</g>
</svg>
