<svg width="2000" height="1500" viewBox="0 0 2000 1500" fill="none" xmlns="http://www.w3.org/2000/svg">
<g clip-path="url(#clip0_1_41)">
<path d="M0 0C660 0 1320 0 2000 0C2000 495 2000 990 2000 1500C1340 1500 680 1500 0 1500C0 1005 0 510 0 0Z" fill="#FEFEFE"/>
<path d="M1584.09 574.199C1599.37 586.22 1612.57 604.22 1615 624C1615 625.98 1615 627.96 1615 630C1636.78 630 1658.56 630 1681 630C1681 622.08 1681 614.16 1681 606C1682.81 604.186 1685.62 604.872 1688.06 604.871C1689.36 604.867 1690.66 604.864 1692 604.861C1693.43 604.863 1694.85 604.865 1696.28 604.867C1697.73 604.867 1699.19 604.866 1700.64 604.864C1703.69 604.863 1706.74 604.865 1709.79 604.87C1713.71 604.875 1717.63 604.872 1721.54 604.866C1724.55 604.862 1727.55 604.864 1730.55 604.866C1732 604.867 1733.44 604.866 1734.89 604.864C1736.9 604.861 1738.92 604.866 1740.94 604.871C1742.66 604.872 1742.66 604.872 1744.42 604.873C1747 605 1747 605 1748 606C1748.09 608.056 1748.12 610.114 1748.11 612.172C1748.11 612.816 1748.11 613.46 1748.11 614.123C1748.11 616.261 1748.11 618.398 1748.1 620.535C1748.1 622.013 1748.09 623.492 1748.09 624.97C1748.09 628.868 1748.08 632.766 1748.07 636.664C1748.06 640.638 1748.05 644.613 1748.05 648.588C1748.04 656.392 1748.02 664.196 1748 672C1739.41 672.023 1730.82 672.041 1722.24 672.052C1718.25 672.057 1714.26 672.064 1710.27 672.075C1706.43 672.086 1702.58 672.092 1698.74 672.095C1697.27 672.097 1695.8 672.1 1694.33 672.106C1692.28 672.113 1690.22 672.114 1688.17 672.114C1687 672.116 1685.83 672.118 1684.63 672.12C1682 672 1682 672 1681 671C1681 663.41 1681 655.82 1681 648C1659.22 648 1637.44 648 1615 648C1614.67 650.97 1614.34 653.94 1614 657C1613.24 659.586 1612.41 662.152 1611.5 664.688C1610.63 667.113 1609.8 669.551 1609 672C1608.66 672.955 1608.32 673.91 1607.97 674.895C1608.01 679.105 1609.72 681.034 1612.15 684.384C1614.18 687.251 1615.94 690.2 1617.71 693.238C1618.37 694.373 1619.03 695.508 1619.71 696.678C1620.05 697.269 1620.39 697.86 1620.74 698.47C1626.88 709.054 1633.12 719.562 1639.5 730C1646.13 740.858 1652.61 751.796 1659.01 762.795C1662.11 768.122 1665.24 773.427 1668.51 778.648C1669.03 779.481 1669.55 780.314 1670.09 781.171C1671.04 782.666 1671.99 784.156 1672.95 785.637C1675.3 789.345 1676.22 791.648 1676 796C1676.69 795.995 1677.38 795.99 1678.1 795.984C1681.21 795.963 1684.32 795.95 1687.44 795.938C1688.53 795.929 1689.61 795.921 1690.74 795.912C1691.77 795.909 1692.81 795.906 1693.87 795.902C1695.31 795.895 1695.31 795.895 1696.78 795.887C1699 796 1699 796 1700 797C1700.1 799.02 1700.13 801.043 1700.13 803.064C1700.13 804.363 1700.14 805.661 1700.14 806.998C1700.14 808.426 1700.14 809.854 1700.13 811.281C1700.13 812.735 1700.13 814.188 1700.14 815.642C1700.14 818.692 1700.14 821.742 1700.13 824.792C1700.12 828.709 1700.13 832.627 1700.13 836.545C1700.14 839.547 1700.14 842.55 1700.13 845.552C1700.13 846.997 1700.13 848.442 1700.14 849.887C1700.14 851.903 1700.13 853.919 1700.13 855.936C1700.13 857.66 1700.13 857.66 1700.13 859.419C1700 862 1700 862 1699 863C1696.98 863.099 1694.96 863.128 1692.94 863.129C1691.64 863.133 1690.34 863.136 1689 863.139C1687.57 863.137 1686.15 863.135 1684.72 863.133C1683.27 863.134 1681.81 863.134 1680.36 863.136C1677.31 863.137 1674.26 863.135 1671.21 863.13C1667.29 863.125 1663.37 863.128 1659.46 863.134C1656.45 863.138 1653.45 863.136 1650.45 863.134C1649 863.133 1647.56 863.134 1646.11 863.136C1644.1 863.139 1642.08 863.134 1640.06 863.129C1638.34 863.128 1638.34 863.128 1636.58 863.127C1634 863 1634 863 1633 862C1632.9 859.981 1632.87 857.958 1632.87 855.936C1632.87 854.638 1632.86 853.339 1632.86 852.002C1632.86 850.574 1632.86 849.147 1632.87 847.719C1632.87 846.265 1632.87 844.812 1632.86 843.358C1632.86 840.308 1632.86 837.258 1632.87 834.209C1632.88 830.291 1632.87 826.373 1632.87 822.455C1632.86 819.453 1632.86 816.45 1632.87 813.448C1632.87 812.003 1632.87 810.558 1632.86 809.113C1632.86 807.097 1632.87 805.081 1632.87 803.064C1632.87 801.34 1632.87 801.34 1632.87 799.581C1633 797 1633 797 1634 796C1635.71 795.913 1637.42 795.893 1639.13 795.902C1640.68 795.907 1640.68 795.907 1642.26 795.912C1643.35 795.921 1644.44 795.929 1645.56 795.938C1647.2 795.944 1647.2 795.944 1648.87 795.951C1651.58 795.963 1654.29 795.98 1657 796C1656.18 794.64 1656.18 794.64 1655.35 793.253C1651.4 786.686 1647.47 780.113 1643.56 773.52C1643.19 772.898 1642.83 772.277 1642.45 771.637C1641.69 770.356 1640.93 769.075 1640.17 767.795C1632.92 755.549 1625.59 743.361 1618.17 731.217C1612.5 721.9 1607.03 712.479 1601.64 702.995C1601.06 701.973 1600.48 700.951 1599.88 699.898C1599.37 698.998 1598.86 698.097 1598.33 697.169C1597.05 694.899 1597.05 694.899 1595 693C1594.37 693.629 1593.74 694.258 1593.09 694.906C1583.77 703.816 1573.62 709.831 1561.63 714.438C1560.98 714.685 1560.34 714.932 1559.68 715.187C1554.95 716.899 1551.2 717.35 1546 718C1545.67 769.48 1545.34 820.96 1545 874C1552.92 874 1560.84 874 1569 874C1570.81 875.814 1570.13 878.624 1570.13 881.064C1570.13 882.363 1570.14 883.661 1570.14 884.998C1570.14 886.426 1570.14 887.854 1570.13 889.281C1570.13 890.735 1570.13 892.188 1570.14 893.642C1570.14 896.692 1570.14 899.742 1570.13 902.792C1570.12 906.709 1570.13 910.627 1570.13 914.545C1570.14 917.547 1570.14 920.55 1570.13 923.552C1570.13 924.997 1570.13 926.442 1570.14 927.887C1570.14 929.903 1570.13 931.919 1570.13 933.936C1570.13 935.085 1570.13 936.235 1570.13 937.419C1570 940 1570 940 1569 941C1566.94 941.094 1564.89 941.117 1562.83 941.114C1562.17 941.114 1561.52 941.114 1560.85 941.114C1558.72 941.113 1556.59 941.106 1554.46 941.098C1553.17 941.097 1551.87 941.096 1550.54 941.095C1545.67 941.089 1540.8 941.075 1535.94 941.063C1525.07 941.042 1514.2 941.021 1503 941C1503 918.89 1503 896.78 1503 874C1510.92 874 1518.84 874 1527 874C1527 822.52 1527 771.04 1527 718C1524.69 717.67 1522.38 717.34 1520 717C1503.94 714.408 1489.32 705.514 1478 694C1478 693.34 1478 692.68 1478 692C1477.34 692 1476.68 692 1476 692C1475.61 693.309 1475.61 693.309 1475.21 694.644C1474 697.99 1472.55 700.675 1470.68 703.691C1470.01 704.787 1469.34 705.882 1468.64 707.011C1468.1 707.878 1468.1 707.878 1467.55 708.762C1465.63 711.87 1463.72 714.99 1461.81 718.109C1461.41 718.756 1461.02 719.402 1460.61 720.068C1456.31 727.094 1452.15 734.198 1448 741.313C1446.58 743.751 1445.15 746.19 1443.73 748.629C1443.08 749.743 1442.43 750.857 1441.75 752.004C1438.65 757.3 1435.49 762.559 1432.32 767.811C1429.53 772.432 1426.76 777.061 1423.99 781.688C1422.31 784.478 1420.64 787.268 1418.96 790.059C1417.99 791.689 1417.01 793.32 1416 795C1427.39 795.495 1427.39 795.495 1439 796C1439.02 804.588 1439.04 813.176 1439.05 821.764C1439.06 825.752 1439.06 829.739 1439.08 833.726C1439.09 837.571 1439.09 841.416 1439.09 845.261C1439.1 846.731 1439.1 848.201 1439.11 849.671C1439.11 851.724 1439.11 853.776 1439.11 855.828C1439.12 856.998 1439.12 858.168 1439.12 859.374C1439 862 1439 862 1438 863C1435.98 863.099 1433.96 863.128 1431.94 863.129C1430.64 863.133 1429.34 863.136 1428 863.139C1426.57 863.137 1425.15 863.135 1423.72 863.133C1422.27 863.134 1420.81 863.134 1419.36 863.136C1416.31 863.137 1413.26 863.135 1410.21 863.13C1406.29 863.125 1402.37 863.128 1398.46 863.134C1395.45 863.138 1392.45 863.136 1389.45 863.134C1388 863.133 1386.56 863.134 1385.11 863.136C1383.1 863.139 1381.08 863.134 1379.06 863.129C1377.34 863.128 1377.34 863.128 1375.58 863.127C1373 863 1373 863 1372 862C1371.9 859.981 1371.87 857.958 1371.87 855.936C1371.87 854.638 1371.86 853.339 1371.86 852.002C1371.86 850.574 1371.86 849.147 1371.87 847.719C1371.87 846.265 1371.87 844.812 1371.86 843.358C1371.86 840.308 1371.86 837.258 1371.87 834.209C1371.88 830.291 1371.87 826.373 1371.87 822.455C1371.86 819.453 1371.86 816.45 1371.87 813.448C1371.87 812.003 1371.87 810.558 1371.86 809.113C1371.86 807.097 1371.87 805.081 1371.87 803.064C1371.87 801.915 1371.87 800.766 1371.87 799.581C1372 797 1372 797 1373 796C1374.71 795.913 1376.42 795.893 1378.13 795.902C1379.68 795.907 1379.68 795.907 1381.26 795.912C1382.35 795.921 1383.44 795.929 1384.56 795.938C1386.2 795.944 1386.2 795.944 1387.87 795.951C1390.58 795.963 1393.29 795.98 1396 796C1396.08 794.805 1396.08 794.805 1396.16 793.586C1397.32 788.647 1399.74 784.918 1402.38 780.625C1403.56 778.655 1404.75 776.685 1405.94 774.715C1406.59 773.644 1407.24 772.572 1407.91 771.468C1410.15 767.764 1412.36 764.042 1414.56 760.316C1414.95 759.655 1415.35 758.994 1415.75 758.313C1416.55 756.957 1417.35 755.601 1418.16 754.245C1424.96 742.752 1431.82 731.286 1438.7 719.84C1443.39 712.041 1448.02 704.209 1452.62 696.361C1455.9 690.798 1459.27 685.348 1462.93 680.023C1464.31 677.793 1464.31 677.793 1464 674C1463.27 671.73 1462.47 669.481 1461.63 667.25C1457 654.73 1457 654.73 1457 648C1435.22 648 1413.44 648 1391 648C1391 655.59 1391 663.18 1391 671C1389.19 672.814 1386.38 672.128 1383.94 672.129C1381.99 672.134 1381.99 672.134 1380 672.139C1378.57 672.137 1377.15 672.135 1375.72 672.133C1374.27 672.134 1372.81 672.134 1371.36 672.136C1368.31 672.137 1365.26 672.135 1362.21 672.13C1358.29 672.125 1354.37 672.128 1350.46 672.134C1347.45 672.138 1344.45 672.136 1341.45 672.134C1340 672.133 1338.56 672.134 1337.11 672.136C1335.1 672.139 1333.08 672.134 1331.06 672.129C1329.34 672.128 1329.34 672.128 1327.58 672.127C1325 672 1325 672 1324 671C1323.9 668.981 1323.87 666.958 1323.87 664.936C1323.87 663.638 1323.86 662.339 1323.86 661.002C1323.86 659.574 1323.86 658.147 1323.87 656.719C1323.87 655.265 1323.87 653.812 1323.86 652.358C1323.86 649.308 1323.86 646.258 1323.87 643.209C1323.88 639.291 1323.87 635.373 1323.87 631.455C1323.86 628.453 1323.86 625.45 1323.87 622.448C1323.87 621.003 1323.87 619.558 1323.86 618.113C1323.86 616.097 1323.87 614.081 1323.87 612.064C1323.87 610.915 1323.87 609.766 1323.87 608.581C1324 606 1324 606 1325 605C1327.02 604.901 1329.04 604.872 1331.06 604.871C1332.36 604.867 1333.66 604.864 1335 604.861C1336.43 604.863 1337.85 604.865 1339.28 604.867C1340.73 604.867 1342.19 604.866 1343.64 604.864C1346.69 604.863 1349.74 604.865 1352.79 604.87C1356.71 604.875 1360.63 604.872 1364.54 604.866C1367.55 604.862 1370.55 604.864 1373.55 604.866C1375 604.867 1376.44 604.866 1377.89 604.864C1379.9 604.861 1381.92 604.866 1383.94 604.871C1385.66 604.872 1385.66 604.872 1387.42 604.873C1390 605 1390 605 1391 606C1391 613.92 1391 621.84 1391 630C1412.78 630 1434.56 630 1457 630C1457.33 627.03 1457.66 624.06 1458 621C1461.47 604.974 1469.42 592.297 1481 581C1481.73 580.261 1482.46 579.523 1483.21 578.762C1510.73 552.419 1554.03 552.826 1584.09 574.199Z" fill="#6D6ACE"/>
<path d="M1055.69 717.562C1057.48 719.015 1059.25 720.492 1061 722C1061.65 722.539 1062.3 723.078 1062.97 723.633C1075.63 735.087 1083.82 753.681 1085.3 770.419C1085.44 773.889 1085.47 777.34 1085.44 780.812C1085.43 782.039 1085.42 783.266 1085.41 784.53C1085.05 803.655 1079.03 821.647 1066 836C1065.4 836.683 1064.79 837.366 1064.17 838.07C1051.72 851.385 1032.28 860.157 1014.08 861.161C988.94 861.508 968.052 859.332 948 843C947.054 842.298 947.054 842.298 946.09 841.582C930.648 829.588 923.964 810.129 921.297 791.479C918.741 770.176 923.55 749.386 936.437 732.062C937.599 730.686 938.787 729.332 940 728C940.677 727.243 941.353 726.487 942.051 725.707C970.641 695.391 1022.75 693.474 1055.69 717.562Z" fill="#6A9BF2"/>
<path d="M252 653C297.87 653 343.74 653 391 653C391 662.9 391 672.8 391 683C356.68 683 322.36 683 287 683C287 703.46 287 723.92 287 745C318.02 745 349.04 745 381 745C381 754.57 381 764.14 381 774C349.98 774 318.96 774 287 774C287 802.38 287 830.76 287 860C275.45 860 263.9 860 252 860C252 791.69 252 723.38 252 653Z" fill="#6FDEF5"/>
<path d="M636.312 715.062C643.764 722.177 649.531 732.059 652 742C652.176 742.657 652.352 743.313 652.533 743.99C654.045 750.056 654.272 755.796 654.227 762.028C654.227 763.092 654.228 764.156 654.228 765.253C654.227 768.743 654.211 772.233 654.195 775.723C654.192 778.154 654.189 780.585 654.187 783.015C654.179 789.392 654.159 795.769 654.137 802.146C654.117 808.662 654.108 815.178 654.098 821.693C654.076 834.462 654.041 847.231 654 860C642.78 860 631.56 860 620 860C619.985 857.221 619.971 854.441 619.956 851.577C619.905 842.353 619.839 833.129 619.764 823.905C619.72 818.318 619.68 812.73 619.654 807.142C619.627 801.741 619.587 796.34 619.537 790.938C619.52 788.887 619.509 786.835 619.502 784.783C619.576 761.238 619.576 761.238 608.289 741.191C600.238 734.38 589.491 732.291 579.191 732.687C568.244 733.759 558.779 737.112 550.934 745.105C539.001 759.667 537.548 775.036 537.488 793.105C537.471 795.04 537.453 796.975 537.434 798.91C537.387 803.968 537.357 809.027 537.33 814.085C537.301 819.261 537.254 824.436 537.209 829.611C537.123 839.741 537.057 849.87 537 860C525.78 860 514.56 860 503 860C503 808.19 503 756.38 503 703C514.55 703 526.1 703 538 703C538.33 711.58 538.66 720.16 539 729C541.31 726.03 543.62 723.06 546 720C568.08 696.064 611.332 695.485 636.312 715.062Z" fill="#6DC4F4"/>
<path d="M1254.19 716C1265.16 726.344 1270.57 740.665 1271.09 755.523C1271.12 758.297 1271.12 761.07 1271.11 763.844C1271.11 764.889 1271.11 765.934 1271.11 767.011C1271.11 770.435 1271.11 773.86 1271.1 777.285C1271.1 779.671 1271.09 782.057 1271.09 784.443C1271.09 790.702 1271.08 796.961 1271.07 803.219C1271.06 809.614 1271.05 816.009 1271.05 822.404C1271.04 834.936 1271.02 847.468 1271 860C1259.78 860 1248.56 860 1237 860C1236.99 857.059 1236.98 854.117 1236.97 851.087C1236.94 841.34 1236.88 831.593 1236.82 821.846C1236.78 815.94 1236.74 810.034 1236.73 804.127C1236.71 798.421 1236.68 792.716 1236.63 787.01C1236.62 784.839 1236.61 782.668 1236.61 780.497C1236.65 759.521 1236.65 759.521 1226 742C1215.91 733.995 1205.72 732.124 1193 733C1181.79 734.916 1172 739.885 1165 749C1159.06 759.025 1155.71 768.425 1155.68 780.078C1155.67 781.382 1155.67 781.382 1155.65 782.712C1155.62 785.558 1155.6 788.404 1155.59 791.25C1155.57 793.234 1155.55 795.218 1155.53 797.202C1155.48 802.403 1155.44 807.605 1155.4 812.806C1155.36 818.122 1155.31 823.438 1155.26 828.754C1155.16 839.169 1155.08 849.585 1155 860C1143.78 860 1132.56 860 1121 860C1121 808.19 1121 756.38 1121 703C1132.22 703 1143.44 703 1155 703C1155.33 711.91 1155.66 720.82 1156 730C1157.11 728.35 1158.23 726.7 1159.38 725C1168.83 712.103 1182.06 705.179 1197.71 702.473C1218.51 699.857 1237.56 702.357 1254.19 716Z" fill="#6889F2"/>
<path d="M706 666C716.89 666 727.78 666 739 666C739 680.19 739 694.38 739 709C754.51 709 770.02 709 786 709C786 716.92 786 724.84 786 733C770.49 733 754.98 733 739 733C739.091 747.71 739.091 747.71 739.209 762.42C739.263 768.424 739.314 774.428 739.346 780.432C739.373 785.276 739.413 790.119 739.463 794.963C739.48 796.806 739.491 798.649 739.498 800.492C739.507 803.084 739.535 805.675 739.568 808.267C739.566 809.02 739.565 809.774 739.563 810.549C739.676 817.013 740.916 823.311 744.938 828.5C750.255 832.367 757.758 831.629 764 831C768.497 829.662 772.718 827.904 777 826C777.99 825.67 778.98 825.34 780 825C781.372 828.577 782.719 832.162 784.062 835.75C784.452 836.766 784.842 837.782 785.244 838.828C785.608 839.808 785.972 840.788 786.348 841.797C786.858 843.148 786.858 843.148 787.379 844.526C788.054 847.216 788.149 848.485 787 851C785.453 852.157 785.453 852.157 783.465 853.07C782.737 853.409 782.009 853.748 781.26 854.098C780.11 854.606 780.11 854.606 778.938 855.125C778.198 855.472 777.459 855.819 776.697 856.176C767.903 860.192 760.28 861.344 750.625 861.312C749.159 861.337 749.159 861.337 747.664 861.361C735.983 861.369 725.881 857.984 716.992 850.254C710.48 843.474 705.867 833.415 705.88 823.912C705.878 823.108 705.877 822.303 705.876 821.473C705.879 820.6 705.883 819.726 705.886 818.825C705.886 817.898 705.886 816.971 705.886 816.016C705.887 812.953 705.895 809.891 705.902 806.828C705.904 804.704 705.906 802.58 705.907 800.456C705.91 794.866 705.92 789.276 705.931 783.687C705.942 777.983 705.946 772.278 705.951 766.574C705.962 755.383 705.979 744.191 706 733C698.41 733 690.82 733 683 733C683 725.08 683 717.16 683 709C690.59 709 698.18 709 706 709C706 694.81 706 680.62 706 666Z" fill="#6BB5F3"/>
<path d="M1025 734C1025.7 734.351 1026.39 734.701 1027.11 735.062C1038.82 741.599 1045.7 752.165 1049.88 764.605C1053.47 780.305 1052.35 797.82 1044.36 811.895C1042.69 814.399 1040.93 816.7 1039 819C1038.48 819.645 1037.96 820.289 1037.42 820.953C1030.88 828.273 1020.41 833.252 1010.67 834.235C996.69 834.988 985.473 833.742 974 825C972.546 823.948 972.546 823.948 971.063 822.875C961.559 814.718 956.364 802.238 955 790C953.787 772.942 956.889 757.758 967.586 743.953C981.112 729.041 1007.16 724.245 1025 734Z" fill="#FEFEFE"/>
<path d="M908 702C908 712.23 908 722.46 908 733C905.587 733.083 903.174 733.165 900.688 733.25C887.381 733.964 875.611 738.904 866.25 748.562C858.408 757.725 854.878 767.768 854.795 779.624C854.785 780.493 854.775 781.361 854.765 782.256C854.733 785.124 854.708 787.992 854.684 790.859C854.663 792.849 854.642 794.839 854.621 796.828C854.565 802.063 854.516 807.297 854.468 812.532C854.418 817.874 854.362 823.216 854.307 828.559C854.199 839.039 854.098 849.519 854 860C842.78 860 831.56 860 820 860C820 808.19 820 756.38 820 703C831.22 703 842.44 703 854 703C854.33 712.24 854.66 721.48 855 731C856.98 728.03 858.96 725.06 861 722C873.312 707.264 889.147 702 908 702Z" fill="#6BAAF3"/>
<path d="M420 703C430.89 703 441.78 703 453 703C453 754.81 453 806.62 453 860C442.11 860 431.22 860 420 860C420 808.19 420 756.38 420 703Z" fill="#6DD0F4"/>
<path d="M1533 588C1535.31 588 1537.62 588 1540 588C1540 591.96 1540 595.92 1540 600C1540.97 599.917 1541.94 599.835 1542.94 599.75C1547.81 599.71 1551.74 601.834 1556 604C1555.48 606.763 1554.89 609.326 1554 612C1553.32 611.783 1552.64 611.567 1551.95 611.344C1541.55 608.156 1541.55 608.156 1531.08 609.832C1528.79 611.287 1527.22 612.556 1526 615C1525.25 620.722 1525.25 620.722 1528 625.52C1531.57 628.469 1535.09 630.083 1539.31 631.875C1547 635.319 1552.83 638.84 1558 645.625C1559.86 651.888 1560.44 658.576 1557.86 664.703C1555 669.246 1551.89 672.607 1547 675C1543.12 675.75 1543.12 675.75 1540 676C1540 680.62 1540 685.24 1540 690C1537.36 690 1534.72 690 1532 690C1532 685.71 1532 681.42 1532 677C1529.98 676.732 1527.96 676.464 1525.88 676.188C1520.98 675.445 1517.18 674.629 1513 672C1513.66 669.36 1514.32 666.72 1515 664C1517.58 664.443 1519.82 664.918 1522.21 666.016C1525.72 667.253 1528.72 667.338 1532.44 667.375C1534.35 667.418 1534.35 667.418 1536.31 667.461C1540.57 666.929 1542.69 665.682 1546 663C1547.22 660.55 1547.17 658.858 1547.19 656.125C1547.2 655.261 1547.22 654.398 1547.23 653.508C1546.98 650.751 1546.62 649.247 1545 647C1542.78 645.895 1542.78 645.895 1540 645C1520.81 636.402 1520.81 636.402 1515.06 628.25C1513.35 623.023 1512.8 617.95 1514.91 612.754C1518.24 607.075 1522.41 602.577 1528.88 600.688C1530.42 600.347 1530.42 600.347 1532 600C1532.33 596.04 1532.66 592.08 1533 588Z" fill="#FAFAFD"/>
<path d="M444 639C447.404 640.44 449.595 642.218 452 645C452.675 645.777 452.675 645.777 453.363 646.57C456.859 651.543 456.825 657.148 456 663C453.933 669.863 449.86 673.748 443.75 677.313C438.237 678.691 432.419 679.114 427.25 676.438C422.656 673.389 418.749 669.248 417 664C416.318 657.692 415.769 651.774 419.625 646.438C426.399 638.391 433.995 637.595 444 639Z" fill="#6ED1F4"/>
</g>
<defs>
<clipPath id="clip0_1_41">
<rect width="2000" height="1500" fill="white"/>
</clipPath>
</defs>
</svg>
